<?xml version="1.0" encoding="utf-8"?>
<!-- Generator: Adobe Illustrator 27.7.0, SVG Export Plug-In . SVG Version: 6.00 Build 0)  -->
<svg version="1.1" id="Layer_1" xmlns="http://www.w3.org/2000/svg" xmlns:xlink="http://www.w3.org/1999/xlink" x="0px" y="0px"
	 viewBox="0 0 48 48" style="enable-background:new 0 0 48 48;" xml:space="preserve">
<style type="text/css">
	.st0{fill:#FFFFFF;}
</style>
<path class="st0" d="M11,44c-0.8,0-1.5-0.3-2.1-0.9C8.3,42.5,8,41.8,8,41V15c0-0.8,0.3-1.5,0.9-2.1C9.5,12.3,10.2,12,11,12h5.5v-0.5
	c0-2.1,0.7-3.9,2.2-5.3C20.1,4.7,21.9,4,24,4s3.9,0.7,5.3,2.2c1.4,1.5,2.2,3.2,2.2,5.3V12H37c0.8,0,1.5,0.3,2.1,0.9
	c0.6,0.6,0.9,1.3,0.9,2.1v26c0,0.8-0.3,1.5-0.9,2.1C38.5,43.7,37.8,44,37,44H11z M11,41h26V15h-5.5v4.5c0,0.4-0.1,0.8-0.4,1.1
	C30.8,20.9,30.4,21,30,21c-0.4,0-0.8-0.1-1.1-0.4c-0.3-0.3-0.4-0.6-0.4-1.1V15h-9v4.5c0,0.4-0.1,0.8-0.4,1.1
	C18.8,20.9,18.4,21,18,21c-0.4,0-0.8-0.1-1.1-0.4c-0.3-0.3-0.4-0.6-0.4-1.1V15H11V41z M19.5,12h9v-0.5c0-1.3-0.4-2.3-1.3-3.2
	C26.3,7.4,25.3,7,24,7c-1.3,0-2.3,0.4-3.2,1.3c-0.9,0.9-1.3,1.9-1.3,3.2V12z M11,41V15V41z"/>
</svg>
